<?xml version="1.0" encoding="UTF-8"?>
<svg xmlns="http://www.w3.org/2000/svg" width="160" height="160">
<line x1="0" y1="0" x2="40" y2="0" stroke="black"/>
<line x1="0" y1="40" x2="0" y2="0" stroke="black"/>
<line x1="40" y1="80" x2="0" y2="80" stroke="black"/>
<line x1="0" y1="80" x2="0" y2="40" stroke="black"/>
<line x1="0" y1="80" x2="40" y2="80" stroke="black"/>
<line x1="0" y1="120" x2="0" y2="80" stroke="black"/>
<line x1="40" y1="120" x2="40" y2="160" stroke="black"/>
<line x1="40" y1="160" x2="0" y2="160" stroke="black"/>
<line x1="0" y1="160" x2="0" y2="120" stroke="green"/>
<line x1="40" y1="0" x2="80" y2="0" stroke="black"/>
<line x1="80" y1="40" x2="40" y2="40" stroke="black"/>
<line x1="40" y1="40" x2="80" y2="40" stroke="black"/>
<line x1="80" y1="80" x2="40" y2="80" stroke="black"/>
<line x1="40" y1="80" x2="80" y2="80" stroke="black"/>
<line x1="80" y1="120" x2="40" y2="120" stroke="black"/>
<line x1="40" y1="120" x2="80" y2="120" stroke="black"/>
<line x1="80" y1="160" x2="40" y2="160" stroke="black"/>
<line x1="40" y1="160" x2="40" y2="120" stroke="black"/>
<line x1="80" y1="0" x2="120" y2="0" stroke="black"/>
<line x1="120" y1="40" x2="80" y2="40" stroke="black"/>
<line x1="80" y1="40" x2="120" y2="40" stroke="black"/>
<line x1="120" y1="40" x2="120" y2="80" stroke="black"/>
<line x1="120" y1="80" x2="80" y2="80" stroke="black"/>
<line x1="80" y1="80" x2="120" y2="80" stroke="black"/>
<line x1="120" y1="80" x2="120" y2="120" stroke="black"/>
<line x1="120" y1="160" x2="80" y2="160" stroke="black"/>
<line x1="120" y1="0" x2="160" y2="0" stroke="black"/>
<line x1="160" y1="0" x2="160" y2="40" stroke="black"/>
<line x1="160" y1="40" x2="160" y2="80" stroke="black"/>
<line x1="120" y1="80" x2="120" y2="40" stroke="black"/>
<line x1="160" y1="80" x2="160" y2="120" stroke="black"/>
<line x1="120" y1="120" x2="120" y2="80" stroke="black"/>
<line x1="160" y1="120" x2="160" y2="160" stroke="red"/>
<line x1="160" y1="160" x2="120" y2="160" stroke="black"/>
</svg>